<svg width="77" height="80" viewBox="0 0 77 80" fill="none" xmlns="http://www.w3.org/2000/svg">
<path d="M76.2093 48.0413C76.2216 54.874 74.3567 61.5809 70.8149 67.4407C64.1601 78.4672 51.9991 79.9603 38.1029 79.9603C24.2067 79.9603 12.0493 78.4672 5.39443 67.4407C1.85269 61.5809 -0.0122635 54.874 6.06872e-05 48.0413C-0.000617843 46.3322 0.116036 44.625 0.349212 42.9316C1.77375 32.4594 7.52425 24.3671 15.7572 18.4433C18.0896 17.4041 20.2962 15.0865 22.3527 13.5935C27.2096 10.0991 31.1708 5.52109 33.9166 0.228637C35.308 0.0770857 36.7067 0.000759604 38.1064 0C39.5062 0.000882563 40.9048 0.0772083 42.2962 0.228637C45.0408 5.52093 49.0007 10.099 53.8566 13.5935C55.9096 15.0727 58.1233 17.3763 60.4556 18.4433C68.6886 24.3671 74.4391 32.4594 75.8637 42.9316C76.0957 44.6251 76.2111 46.3323 76.2093 48.0413Z" fill="#AD59AD"/>
<path d="M69.6872 48.7237C69.6872 66.0273 55.5465 74.1681 38.1029 74.1681C20.6593 74.1681 6.52219 66.0273 6.52219 48.7237C6.52219 40.4132 9.84934 32.4431 15.7718 26.5663C21.6942 20.6896 29.7269 17.3876 38.1029 17.3867C46.4796 17.3867 54.5132 20.6883 60.4364 26.5651C66.3596 32.4419 69.6872 40.4126 69.6872 48.7237Z" fill="#F5F8E5"/>
<path d="M65.0539 48.5504C65.0539 63.2247 53.064 69.2316 38.2775 69.2316C23.4909 69.2316 11.4976 63.2247 11.4976 48.5504C11.4985 41.5042 14.3204 34.7468 19.3425 29.7647C24.3646 24.7825 31.1756 21.9836 38.2775 21.9836C45.3787 21.9846 52.1889 24.7838 57.2102 29.7659C62.2316 34.7479 65.053 41.5048 65.0539 48.5504Z" fill="#FFA58D"/>
<g style="mix-blend-mode:multiply" opacity="0.5">
<path d="M76.2093 48.0413C76.2193 54.8742 74.3532 61.5807 70.8114 67.4407C64.1775 78.4291 52.0725 79.9118 38.2216 79.9568V0.013916C39.583 0.0193546 40.9432 0.096836 42.2962 0.246021C45.0417 5.53669 49.0016 10.1134 53.8566 13.6074C55.9131 15.0866 58.1233 17.3903 60.4591 18.4572C68.6851 24.3775 74.4251 32.4733 75.8636 42.9421C76.0948 44.6321 76.2103 46.3358 76.2093 48.0413Z" fill="#AD59AD"/>
</g>
<path d="M46.3394 32.688C49.3875 31.0287 51.2275 28.1015 49.6354 27.0518C48.0433 26.0022 46.0811 29.5703 46.3394 32.688Z" fill="#BF1E0D"/>
<path d="M52.2226 38.5772C55.6967 38.6603 58.7727 37.046 57.9243 35.3451C57.0758 33.6442 53.5773 35.7469 52.2226 38.5772Z" fill="#BF1E0D"/>
<path d="M54.3385 46.5828C57.2993 48.3876 60.7768 48.5227 60.9025 46.6278C61.0282 44.7329 56.9362 44.8126 54.3385 46.5828Z" fill="#BF1E0D"/>
<path d="M52.1109 54.5677C53.7624 57.6024 56.6988 59.4523 57.7672 57.8761C58.8356 56.2999 55.2498 54.3356 52.1109 54.5677Z" fill="#BF1E0D"/>
<path d="M46.1474 60.3668C46.0391 63.831 47.6452 66.8726 49.3631 66.0446C51.0809 65.2167 48.979 61.7282 46.1474 60.3668Z" fill="#BF1E0D"/>
<path d="M30.0236 60.1451C26.9511 61.7594 25.0691 64.6486 26.6473 65.7328C28.2255 66.8171 30.2366 63.2629 30.0236 60.1451Z" fill="#BF1E0D"/>
<path d="M24.2207 54.1867C20.7467 54.055 17.6497 55.6278 18.4737 57.3391C19.2977 59.0504 22.8276 56.9892 24.2207 54.1867Z" fill="#BF1E0D"/>
<path d="M22.2165 46.1428C19.2802 44.2999 15.8061 44.1163 15.6525 46.0077C15.4989 47.8992 19.5944 47.8749 22.2165 46.1428Z" fill="#BF1E0D"/>
<path d="M24.5524 38.1891C22.9463 35.1337 20.0344 33.2457 18.945 34.8046C17.8556 36.3635 21.41 38.3796 24.5524 38.1891Z" fill="#BF1E0D"/>
<path d="M30.5997 32.4733C30.7568 29.0299 29.203 25.9467 27.4573 26.7504C25.7115 27.5541 27.7855 31.0737 30.5997 32.4733Z" fill="#BF1E0D"/>
</svg>
