<svg width="292" height="82" viewBox="0 0 292 82" fill="none" xmlns="http://www.w3.org/2000/svg">
<path d="M76.2093 48.0413C76.2216 54.874 74.3567 61.5809 70.8149 67.4407C64.1601 78.4672 51.9991 79.9603 38.1029 79.9603C24.2067 79.9603 12.0493 78.4672 5.39443 67.4407C1.85269 61.5809 -0.0122635 54.874 6.06872e-05 48.0413C-0.000617843 46.3322 0.116036 44.625 0.349212 42.9316C1.77375 32.4594 7.52425 24.3671 15.7572 18.4433C18.0896 17.4041 20.2962 15.0865 22.3527 13.5935C27.2096 10.0991 31.1708 5.52109 33.9166 0.228637C35.308 0.0770857 36.7067 0.000759604 38.1064 0C39.5062 0.000882563 40.9048 0.0772083 42.2962 0.228637C45.0408 5.52093 49.0007 10.099 53.8566 13.5935C55.9096 15.0727 58.1233 17.3763 60.4556 18.4433C68.6886 24.3671 74.4391 32.4594 75.8637 42.9316C76.0957 44.6251 76.2111 46.3323 76.2093 48.0413Z" fill="#AD59AD"/>
<path d="M69.6872 48.7237C69.6872 66.0273 55.5465 74.1681 38.1029 74.1681C20.6593 74.1681 6.52219 66.0273 6.52219 48.7237C6.52219 40.4132 9.84934 32.4431 15.7718 26.5663C21.6942 20.6896 29.7269 17.3876 38.1029 17.3867C46.4796 17.3867 54.5132 20.6883 60.4364 26.5651C66.3596 32.4419 69.6872 40.4126 69.6872 48.7237Z" fill="#F5F8E5"/>
<path d="M65.0539 48.5504C65.0539 63.2247 53.064 69.2316 38.2775 69.2316C23.4909 69.2316 11.4976 63.2247 11.4976 48.5504C11.4985 41.5042 14.3204 34.7468 19.3425 29.7647C24.3646 24.7825 31.1756 21.9836 38.2775 21.9836C45.3787 21.9846 52.1889 24.7838 57.2102 29.7659C62.2316 34.7479 65.053 41.5048 65.0539 48.5504Z" fill="#FFA58D"/>
<g style="mix-blend-mode:multiply" opacity="0.5">
<path d="M76.2093 48.0413C76.2193 54.8742 74.3532 61.5807 70.8114 67.4407C64.1775 78.4291 52.0725 79.9118 38.2216 79.9568V0.013916C39.583 0.0193546 40.9432 0.096836 42.2962 0.246021C45.0417 5.53669 49.0016 10.1134 53.8566 13.6074C55.9131 15.0866 58.1233 17.3903 60.4591 18.4572C68.6851 24.3775 74.4251 32.4733 75.8636 42.9421C76.0948 44.6321 76.2103 46.3358 76.2093 48.0413Z" fill="#AD59AD"/>
</g>
<path d="M46.3394 32.6881C49.3875 31.0288 51.2275 28.1016 49.6354 27.0519C48.0433 26.0023 46.0811 29.5704 46.3394 32.6881Z" fill="#BF1E0D"/>
<path d="M52.2226 38.577C55.6967 38.6602 58.7727 37.0459 57.9243 35.345C57.0758 33.644 53.5773 35.7468 52.2226 38.577Z" fill="#BF1E0D"/>
<path d="M54.3385 46.5829C57.2993 48.3878 60.7768 48.5229 60.9025 46.6279C61.0282 44.733 56.9362 44.8127 54.3385 46.5829Z" fill="#BF1E0D"/>
<path d="M52.1109 54.5679C53.7624 57.6025 56.6988 59.4524 57.7672 57.8762C58.8356 56.3 55.2498 54.3358 52.1109 54.5679Z" fill="#BF1E0D"/>
<path d="M46.1474 60.3669C46.0391 63.8311 47.6452 66.8727 49.3631 66.0447C51.0809 65.2168 48.979 61.7284 46.1474 60.3669Z" fill="#BF1E0D"/>
<path d="M30.0236 60.145C26.9511 61.7593 25.0691 64.6484 26.6473 65.7327C28.2255 66.817 30.2366 63.2628 30.0236 60.145Z" fill="#BF1E0D"/>
<path d="M24.2207 54.1867C20.7467 54.055 17.6497 55.6278 18.4737 57.3391C19.2977 59.0504 22.8276 56.9892 24.2207 54.1867Z" fill="#BF1E0D"/>
<path d="M22.2165 46.1428C19.2802 44.2999 15.8061 44.1163 15.6525 46.0077C15.4989 47.8992 19.5944 47.8749 22.2165 46.1428Z" fill="#BF1E0D"/>
<path d="M24.5524 38.1892C22.9463 35.1338 20.0344 33.2458 18.945 34.8047C17.8556 36.3636 21.41 38.3798 24.5524 38.1892Z" fill="#BF1E0D"/>
<path d="M30.5997 32.4733C30.7568 29.0299 29.203 25.9467 27.4573 26.7504C25.7115 27.5541 27.7855 31.0737 30.5997 32.4733Z" fill="#BF1E0D"/>
<path d="M133.32 17.5184C129.797 21.8625 124.965 25.3093 119.647 26.837C119.263 26.9479 118.883 27.0483 118.502 27.1349C113.638 28.2643 109.267 27.5299 106.037 25.3682C109.564 21.0241 114.396 17.5773 119.714 16.0496C121.695 15.4614 123.757 15.1878 125.824 15.239C128.49 15.2774 131.09 16.068 133.32 17.5184Z" fill="#222222"/>
<path d="M150.498 51.9593L150.809 51.6302C150.847 51.2665 150.893 50.9028 150.945 50.5425C150.844 51.0282 150.694 51.5028 150.498 51.9593Z" fill="#222222"/>
<path d="M237.65 55.4271C235.794 56.7003 233.783 57.7361 231.666 58.5102C228.925 59.4871 227.888 58.6869 227.937 55.8566C227.999 52.3924 229.131 49.098 229.843 45.7378C230.503 42.62 231.201 39.478 231.833 36.3429C232.182 34.6316 231.508 33.6304 229.773 33.3775C228.758 33.232 227.727 33.2391 226.715 33.3983C224.819 33.6963 224.211 34.3787 223.719 36.3498C222.322 41.8925 220.964 47.4525 219.557 52.9987C219.04 55.0252 218.035 56.8093 216.23 58.0287C213.915 59.6049 212.197 58.8497 211.959 56.1788C211.929 55.7914 211.955 55.4018 212.036 55.0218C213.433 48.4329 214.849 41.8509 216.285 35.2759C216.505 34.2367 216.306 33.7794 215.311 33.5438C212.536 32.851 210.999 33.3498 209.299 35.5842C208.074 37.2752 207.218 39.2005 206.785 41.2378C205.881 45.0033 205.015 48.7758 204.24 52.5622C203.646 55.4582 203.105 58.3647 203.363 61.3162C203.685 64.9917 205.891 66.8589 209.599 66.3946C210.355 66.2858 211.093 66.0749 211.792 65.7676C214.603 64.5898 216.862 62.6499 218.922 60.4363L220.294 58.9848C220.454 59.5183 220.549 59.8162 220.643 60.1176C220.863 60.9143 221.023 61.7319 221.31 62.5009C222.444 65.5355 224.316 66.5401 227.615 65.9651C231.432 65.2896 234.878 63.6302 238.216 61.6557C238.498 61.4894 238.809 61.3577 239.204 61.1672L237.65 55.4271Z" fill="#222222"/>
<path d="M260.544 37.7078C260.327 38.4803 260.149 39.2494 260.003 39.9872C259.903 40.5158 259.602 40.9862 259.163 41.3014C258.724 41.6166 258.18 41.7525 257.642 41.6812C253.519 41.0784 247.548 43.9537 245.296 47.4006C244.995 47.8591 244.76 48.3569 244.598 48.8798C244.322 49.643 244.283 50.4708 244.486 51.2562C244.361 51.8313 244.237 52.4086 244.116 52.9883C244.118 52.9951 244.118 53.0023 244.116 53.0091C244.102 53.0556 244.092 53.1031 244.085 53.1511C244.071 53.2012 244.061 53.2521 244.053 53.3035C243.973 53.65 243.896 54.0172 243.819 54.374C243.819 54.4225 243.819 54.464 243.799 54.5091C243.797 54.5333 243.797 54.5576 243.799 54.5818C243.449 56.1996 242.905 58.7388 242.458 60.7342C242.133 62.1788 241.861 63.3393 241.759 63.6441C241.494 64.434 241.061 65.8023 239.528 65.74C239.115 65.6947 238.708 65.6005 238.317 65.4594L238.177 65.4074C236.431 64.7146 235.384 63.0795 235.182 60.6511C234.923 57.6996 235.464 54.7897 236.054 51.8971C236.526 49.6003 237.032 47.314 237.556 45.0241C237.598 44.844 237.636 44.6777 237.681 44.4803C237.982 43.1777 238.288 41.8741 238.6 40.5692C239.037 38.5336 239.894 36.6098 241.117 34.9191C242.817 32.6847 244.354 32.1928 247.129 32.8787C248.128 33.1247 248.327 33.5923 248.104 34.6108C247.981 35.172 247.863 35.7297 247.754 36.2909C250.198 35.0231 252.873 34.0531 254.797 34.1016C256.217 34.1553 257.625 34.3881 258.987 34.7944C259.577 34.9843 260.069 35.3945 260.36 35.9382C260.65 36.482 260.716 37.1166 260.544 37.7078Z" fill="#222222"/>
<path d="M245.296 47.4006C245.017 48.6847 244.741 49.9699 244.469 51.2562C244.266 50.4708 244.305 49.6431 244.581 48.8798C244.748 48.356 244.989 47.8581 245.296 47.4006Z" fill="#222222"/>
<path d="M203.37 58.1845C199.023 60.7168 193.084 58.6244 191.639 53.9478C191.244 52.673 191.234 51.36 192.302 50.3138C194.905 47.7734 197.541 45.2642 200.21 42.7862C201.548 41.5529 203.004 40.4548 204.4 39.277C205.036 38.74 205.587 38.0922 205.301 37.2366C205.026 36.3418 204.645 35.4824 204.166 34.6765C203.873 34.1631 203.403 33.7714 202.843 33.573C202.283 33.3746 201.669 33.3826 201.115 33.5957C199.802 34.046 198.398 34.5483 197.323 35.3936C194.593 37.5449 192.012 39.8971 189.39 42.1834C188.887 42.6234 188.451 43.1395 187.994 43.621L187.732 43.4756C187.725 43.1849 187.742 42.8942 187.781 42.606C188.87 37.4548 190.225 32.3659 192.32 27.4641C193.018 25.8082 193.831 24.187 194.46 22.5068C194.69 21.8798 194.809 20.9895 194.519 20.463C193.692 18.8798 191.3 17.5635 189.17 19.3198C188.09 20.1853 187.173 21.2353 186.464 22.4202C185.246 24.4697 184.213 26.6225 183.378 28.8532C180.553 36.8209 178.511 44.9963 176.807 53.2272C176.795 53.2858 176.78 53.3436 176.761 53.4004C176.273 55.7873 175.679 59.9235 176.468 63.0724L176.569 63.45C176.687 63.8708 176.849 64.2783 177.051 64.666C178.046 66.4569 180.323 66.6301 181.758 65.0332C182.241 64.5162 182.632 63.921 182.913 63.2734C183.507 61.808 183.982 60.3011 184.509 58.8115C184.614 58.5274 184.747 58.2503 184.928 57.8138C185.277 58.2641 185.504 58.5655 185.752 58.8531C186.946 60.2145 188.067 61.6521 189.373 62.9062C190.561 64.0897 191.985 65.015 193.553 65.6234C195.121 66.2317 196.8 66.5096 198.482 66.4396C200.773 66.3807 202.899 65.7468 205.018 64.9916C204.198 62.7956 203.645 60.5104 203.37 58.1845Z" fill="#222222"/>
<path d="M156.685 38.6814C156.245 37.2928 155.456 36.0385 154.391 35.0371C153.511 34.2306 152.462 33.6273 151.319 33.2703C148.725 32.4701 146.431 33.1214 145.013 33.6167C143.409 34.1711 141.891 34.9441 140.502 35.9135C140.209 36.1144 139.926 36.3292 139.64 36.544C139.479 36.6756 139.315 36.8072 139.151 36.932C139.142 36.944 139.13 36.9536 139.116 36.9597L138.669 37.3373C138.379 37.5936 138.062 37.8153 137.667 38.1236C135.942 39.5093 134.273 40.8742 132.992 42.3638C132.374 43.5651 131.834 44.8044 131.375 46.0739C130.542 48.4273 129.774 50.7956 129.071 53.179C128.673 54.6374 128.282 56.1027 127.915 57.575C126.868 61.8879 128.208 64.0323 132.503 65.2551C133.166 65.4332 133.844 65.5492 134.528 65.6015C135.668 65.6985 136.814 65.6985 137.953 65.6015C141.096 65.3486 143.816 63.8071 146.207 61.7909C150.271 58.3752 153.344 54.4157 155.201 49.8118C156.105 47.6975 156.693 45.4639 156.947 43.1813C157.216 40.5659 156.877 39.2703 156.685 38.6814ZM148.009 44.179C147.286 49.5243 144.842 54.0415 140.52 57.5612C139.405 58.4927 138.049 59.0931 136.606 59.2932C136.162 59.3556 135.907 59.314 135.792 59.1374C135.677 58.9607 135.715 58.7528 135.816 58.403C137.014 54.3672 138.114 50.3037 139.51 46.3234C139.768 45.6142 140.09 44.93 140.474 44.2795C141.071 43.2229 141.769 42.201 142.37 41.1409C142.474 40.9863 142.597 40.8454 142.737 40.7218C143.76 39.6548 144.94 38.9481 146.403 39.4504C147.782 39.9215 148.037 41.1825 148.148 42.4677C148.149 43.041 148.102 43.6133 148.009 44.179Z" fill="#222222"/>
<path d="M142.779 38.3971C142.202 39.9456 141.473 41.4525 140.806 42.9767C140.75 43.1015 140.694 43.2296 140.642 43.3543C139.283 46.5823 138.169 49.9069 137.311 53.3V53.3173C136.867 54.755 136.476 56.2827 136.127 57.8208C135.638 59.9651 135.226 62.1648 134.856 64.2711C134.696 65.1648 134.549 66.0413 134.402 66.8934L132.562 75.4777C132.136 76.704 131.728 77.9442 131.239 79.1497C130.959 79.7968 130.568 80.3909 130.083 80.9061C128.652 82.5065 126.372 82.3333 125.373 80.5389C125.173 80.1534 125.014 79.7482 124.899 79.3299L124.794 78.9523C124.005 75.7999 124.598 71.6775 125.091 69.2768C125.108 69.2199 125.122 69.1621 125.132 69.1036C126.334 63.2976 127.706 57.5298 129.399 51.8312C130.097 49.4478 130.865 47.0806 131.703 44.7296C132.161 43.4639 132.701 42.2292 133.32 41.0333C133.781 40.1084 134.28 39.2043 134.79 38.3105C135.501 37.1224 136.417 36.0672 137.496 35.1927C137.94 34.7927 138.488 34.5231 139.078 34.4143C139.668 34.3054 140.277 34.3614 140.837 34.5761C141.697 34.9074 142.409 35.5328 142.845 36.3394C143.117 36.8798 143.016 37.7701 142.779 38.3971Z" fill="#222222"/>
<path d="M177.68 60.696C177.767 60.9801 177.844 61.2676 177.931 61.5517C177.893 61.4269 177.861 61.3022 177.83 61.1741L177.568 60.2075C177.599 60.3773 177.634 60.5401 177.68 60.696Z" fill="#222222"/>
<path d="M291.835 58.8324C289.433 51.1835 270.886 65.546 266.727 60.2423C271.639 59.0529 276.167 56.6491 279.89 53.255C283.216 50.2071 285.8 46.4483 287.446 42.2632C287.645 41.1997 288.085 38.0681 286.234 35.418C284.248 32.5739 280.487 31.6351 277.76 31.7321C266.766 32.1201 257.136 44.6846 258.229 56.4559C258.159 56.0298 254.112 60.4571 254.039 60.4744C252.388 63.8831 257.202 63.1141 260.324 62.0852C265.778 70.1845 277.802 67.3854 285.533 64.0286C288.465 63.031 292.917 63.128 291.835 58.8324ZM265.687 54.5887C266.888 47.6846 270.498 38.6916 278.417 37.4549C282.488 36.6512 276.79 46.3925 273.494 49.926C271.385 52.1985 268.599 53.6361 265.687 54.5887Z" fill="#222222"/>
<path d="M144.325 59.0158C143.857 59.4141 143.379 59.8125 142.908 60.2178C143.054 60.0896 143.198 59.958 143.341 59.8264C143.627 59.5631 143.938 59.3275 144.318 59.0054L144.325 59.0158Z" fill="#222222"/>
<path d="M150.945 50.5425C150.893 50.8889 150.847 51.2665 150.809 51.6302L150.498 51.9593C150.694 51.5028 150.844 51.0282 150.945 50.5425Z" fill="#222222"/>
<path d="M163.281 47.7227V47.837L163.228 48.0379C163.249 47.9305 163.267 47.8266 163.281 47.7227Z" fill="#222222"/>
<path d="M164.939 54.2318C164.67 54.5782 164.45 54.8345 164.272 55.1117C162.177 58.3576 159.828 61.3853 156.685 63.7375C153.965 65.7744 151.797 65.7779 149.325 63.6994C148.7 63.1728 148.166 62.5424 147.579 61.9673C147.363 61.7491 146.487 60.4153 146.088 60.0274L151.535 53.4939C151.741 53.9789 151.961 54.4639 152.213 54.935C153.508 57.3911 154.828 57.5955 156.853 55.4823C158.4 53.843 159.737 52.0196 160.833 50.054L164.939 54.2318Z" fill="#222222"/>
<path d="M264.695 61.4928C264.283 61.6452 263.962 61.7492 263.648 61.8912C260.156 63.5505 256.539 64.8981 252.618 65.2549C249.224 65.5632 247.381 64.4304 246.382 61.375C246.131 60.5991 246.016 59.785 245.831 58.9882C245.831 58.9363 245.81 58.8496 245.799 58.7353C245.743 58.1129 245.9 57.4898 246.246 56.9673C246.591 56.4447 247.104 56.0533 247.702 55.8566L252.161 54.367C252.321 54.314 252.491 54.301 252.658 54.3293C252.824 54.3576 252.981 54.4262 253.114 54.5291C253.247 54.6319 253.352 54.7659 253.42 54.9189C253.489 55.0719 253.518 55.2394 253.505 55.4062C253.302 58.1776 254.315 59.0367 257.161 58.2988C259.346 57.7154 261.45 56.8648 263.424 55.7665L264.695 61.4928Z" fill="#222222"/>
<path d="M133.32 58.8324C130.918 51.1835 112.371 65.546 108.213 60.2423C113.124 59.0529 117.653 56.6491 121.376 53.255C124.702 50.2071 127.286 46.4483 128.931 42.2632C129.13 41.1997 129.57 38.0681 127.72 35.418C125.733 32.5739 121.973 31.6351 119.246 31.7321C108.251 32.1201 98.6214 44.6846 99.7143 56.4559C99.6444 56.0298 95.5978 60.4571 95.5244 60.4744C93.873 63.8831 98.6878 63.1141 101.809 62.0852C107.263 70.1845 119.288 67.3854 127.018 64.0286C129.951 63.031 134.402 63.128 133.32 58.8324ZM107.172 54.5887C108.373 47.6846 111.983 38.6916 119.902 37.4549C123.973 36.6512 118.275 46.3925 114.979 49.926C112.87 52.1985 110.084 53.6361 107.172 54.5887Z" fill="#222222"/>
<path d="M106.18 61.4928C105.768 61.6452 105.447 61.7492 105.133 61.8912C101.642 63.5505 98.0243 64.8981 94.1033 65.2549C90.7096 65.5632 88.8661 64.4304 87.8675 61.375C87.6161 60.5991 87.5009 59.785 87.3158 58.9882C87.3158 58.9363 87.2949 58.8496 87.2844 58.7353C87.228 58.1129 87.3853 57.4898 87.7307 56.9673C88.0761 56.4447 88.5894 56.0533 89.1873 55.8566L93.6459 54.367C93.8059 54.314 93.9767 54.301 94.1429 54.3293C94.3092 54.3576 94.4658 54.4262 94.5989 54.5291C94.7319 54.6319 94.8373 54.7659 94.9056 54.9189C94.9738 55.0719 95.0029 55.2394 94.9902 55.4062C94.7877 58.1776 95.8002 59.0367 98.6458 58.2988C100.831 57.7154 102.935 56.8648 104.91 55.7665L106.18 61.4928Z" fill="#222222"/>
<path d="M179.593 61.4826C179.199 61.6731 178.895 61.8013 178.605 61.971C175.267 63.9421 171.821 65.6015 168.005 66.277C164.705 66.8659 162.834 65.8613 161.699 62.8128C161.64 62.65 161.587 62.4872 161.538 62.3244C161.343 61.7008 161.189 61.0565 161.032 60.426L160.934 60.0796C160.152 56.4179 160.32 53.411 160.777 50.1027C160.777 50.0369 160.809 49.9711 160.826 49.9018C161.937 45.4988 163.026 41.0924 164.126 36.686C164.615 34.7148 165.222 34.0324 167.118 33.7345C168.132 33.5769 169.164 33.5699 170.18 33.7137C171.926 33.97 172.582 34.9712 172.24 36.679C171.605 39.8141 170.906 42.9423 170.246 46.0739C169.548 49.4341 168.403 52.7355 168.34 56.1928C168.291 59.0265 169.328 59.8232 172.069 58.8463C174.186 58.0714 176.198 57.0368 178.057 55.7667L179.593 61.4826Z" fill="#222222"/>
<path d="M174.869 24.5438C175.218 22.8325 174.541 21.8314 172.809 21.5785C171.793 21.4314 170.761 21.4384 169.747 21.5993C167.851 21.8972 167.244 22.5797 166.755 24.5508L166.095 27.2043C166.02 27.5073 166.011 27.8226 166.067 28.1295C166.124 28.4363 166.246 28.7277 166.424 28.9846C166.603 29.2415 166.834 29.458 167.103 29.6198C167.372 29.7817 167.672 29.8853 167.984 29.9237C169.266 30.077 170.557 30.1545 171.849 30.1558C172.363 30.1647 172.864 29.9971 173.267 29.6814C173.67 29.3658 173.951 28.9214 174.063 28.4237C174.349 27.1212 174.621 25.8325 174.869 24.5438Z" fill="#222222"/>
</svg>
