<svg width="296" height="88" viewBox="0 0 296 88" fill="none" xmlns="http://www.w3.org/2000/svg">
<path d="M76.2093 48.0447C76.2216 54.8774 74.3567 61.5843 70.8149 67.4441C64.1601 78.4706 51.9991 79.9637 38.1029 79.9637C24.2067 79.9637 12.0493 78.4706 5.39443 67.4441C1.85269 61.5843 -0.0122635 54.8774 6.06872e-05 48.0447C-0.000617843 46.3356 0.116036 44.6284 0.349212 42.935C1.77375 32.4628 7.52425 24.3705 15.7572 18.4467C18.0896 17.4075 20.2962 15.0899 22.3527 13.5969C27.2096 10.1025 31.1708 5.52451 33.9166 0.232055C35.308 0.0805037 36.7067 0.00417757 38.1064 0.00341797C39.5062 0.00430053 40.9048 0.0806263 42.2962 0.232055C45.0408 5.52435 49.0007 10.1024 53.8566 13.5969C55.9096 15.0761 58.1233 17.3798 60.4556 18.4467C68.6886 24.3705 74.4391 32.4628 75.8637 42.935C76.0957 44.6285 76.2111 46.3357 76.2093 48.0447Z" fill="#AD59AD"/>
<path d="M69.6872 48.7271C69.6872 66.0307 55.5465 74.1716 38.1029 74.1716C20.6593 74.1716 6.52219 66.0307 6.52219 48.7271C6.52219 40.4167 9.84934 32.4465 15.7718 26.5698C21.6942 20.693 29.7269 17.3911 38.1029 17.3901C46.4796 17.3901 54.5132 20.6917 60.4364 26.5685C66.3596 32.4454 69.6872 40.4161 69.6872 48.7271Z" fill="#F5F8E5"/>
<path d="M65.0539 48.5539C65.0539 63.2281 53.064 69.235 38.2775 69.235C23.4909 69.235 11.4976 63.2281 11.4976 48.5539C11.4985 41.5076 14.3204 34.7502 19.3425 29.7681C24.3646 24.7859 31.1756 21.9871 38.2775 21.9871C45.3787 21.988 52.1889 24.7873 57.2102 29.7693C62.2316 34.7514 65.053 41.5082 65.0539 48.5539Z" fill="#FFA58D"/>
<g style="mix-blend-mode:multiply" opacity="0.5">
<path d="M76.2093 48.0447C76.2193 54.8776 74.3532 61.5842 70.8114 67.4442C64.1775 78.4325 52.0725 79.9152 38.2216 79.9602V0.017334C39.583 0.0227726 40.9432 0.100254 42.2962 0.249439C45.0417 5.54011 49.0016 10.1168 53.8566 13.6108C55.9131 15.09 58.1233 17.3937 60.4591 18.4606C68.6851 24.3809 74.4251 32.4767 75.8636 42.9455C76.0948 44.6355 76.2103 46.3392 76.2093 48.0447Z" fill="#AD59AD"/>
</g>
<path d="M46.3394 32.6914C49.3875 31.0321 51.2275 28.1049 49.6354 27.0552C48.0433 26.0056 46.0811 29.5737 46.3394 32.6914Z" fill="#BF1E0D"/>
<path d="M52.2226 38.5806C55.6967 38.6637 58.7727 37.0494 57.9243 35.3485C57.0758 33.6476 53.5773 35.7503 52.2226 38.5806Z" fill="#BF1E0D"/>
<path d="M54.3385 46.5862C57.2993 48.3911 60.7768 48.5262 60.9025 46.6312C61.0282 44.7363 56.9362 44.816 54.3385 46.5862Z" fill="#BF1E0D"/>
<path d="M52.1109 54.5712C53.7624 57.6058 56.6988 59.4557 57.7672 57.8795C58.8356 56.3033 55.2498 54.3391 52.1109 54.5712Z" fill="#BF1E0D"/>
<path d="M46.1474 60.3702C46.0391 63.8344 47.6452 66.876 49.3631 66.048C51.0809 65.2201 48.979 61.7317 46.1474 60.3702Z" fill="#BF1E0D"/>
<path d="M30.0236 60.1486C26.9511 61.7629 25.0691 64.652 26.6473 65.7363C28.2255 66.8206 30.2366 63.2663 30.0236 60.1486Z" fill="#BF1E0D"/>
<path d="M24.2207 54.1901C20.7467 54.0585 17.6497 55.6312 18.4737 57.3425C19.2977 59.0538 22.8276 56.9926 24.2207 54.1901Z" fill="#BF1E0D"/>
<path d="M22.2165 46.1463C19.2802 44.3033 15.8061 44.1197 15.6525 46.0112C15.4989 47.9026 19.5944 47.8783 22.2165 46.1463Z" fill="#BF1E0D"/>
<path d="M24.5524 38.1925C22.9463 35.1371 20.0344 33.2491 18.945 34.808C17.8556 36.3669 21.41 38.3831 24.5524 38.1925Z" fill="#BF1E0D"/>
<path d="M30.5997 32.4767C30.7568 29.0333 29.203 25.9501 27.4573 26.7538C25.7115 27.5575 27.7855 31.0771 30.5997 32.4767Z" fill="#BF1E0D"/>
<g filter="url(#filter0_d_2865_7415)">
<path d="M133.32 17.5217C129.797 21.8658 124.965 25.3126 119.647 26.8403C119.263 26.9512 118.883 27.0516 118.502 27.1382C113.638 28.2676 109.267 27.5332 106.037 25.3715C109.564 21.0274 114.396 17.5806 119.714 16.0529C121.695 15.4647 123.757 15.1911 125.824 15.2422C128.49 15.2807 131.09 16.0713 133.32 17.5217Z" fill="white"/>
<path d="M150.498 51.9626L150.809 51.6335C150.847 51.2698 150.893 50.9061 150.945 50.5458C150.844 51.0315 150.694 51.5061 150.498 51.9626Z" fill="white"/>
<path d="M237.65 55.4302C235.794 56.7034 233.783 57.7393 231.666 58.5134C228.925 59.4903 227.888 58.69 227.937 55.8598C227.999 52.3956 229.131 49.1012 229.843 45.7409C230.503 42.6232 231.201 39.4811 231.833 36.3461C232.182 34.6348 231.508 33.6336 229.773 33.3807C228.758 33.2352 227.727 33.2422 226.715 33.4015C224.819 33.6994 224.211 34.3819 223.719 36.353C222.322 41.8957 220.964 47.4557 219.557 53.0018C219.04 55.0284 218.035 56.8124 216.23 58.0318C213.915 59.608 212.197 58.8528 211.959 56.182C211.929 55.7946 211.955 55.405 212.036 55.0249C213.433 48.4361 214.849 41.8541 216.285 35.2791C216.505 34.2398 216.306 33.7826 215.311 33.547C212.536 32.8542 210.999 33.353 209.299 35.5874C208.074 37.2783 207.218 39.2037 206.785 41.2409C205.881 45.0065 205.015 48.779 204.24 52.5654C203.646 55.4614 203.105 58.3679 203.363 61.3193C203.685 64.9948 205.891 66.862 209.599 66.3978C210.355 66.289 211.093 66.078 211.792 65.7708C214.603 64.593 216.862 62.6531 218.922 60.4394L220.294 58.9879C220.454 59.5214 220.549 59.8193 220.643 60.1207C220.863 60.9175 221.023 61.735 221.31 62.5041C222.444 65.5387 224.316 66.5433 227.615 65.9683C231.432 65.2928 234.878 63.6334 238.216 61.6588C238.498 61.4925 238.809 61.3609 239.204 61.1704L237.65 55.4302Z" fill="white"/>
<path d="M260.544 37.711C260.327 38.4835 260.149 39.2525 260.003 39.9904C259.903 40.519 259.602 40.9894 259.163 41.3046C258.724 41.6198 258.18 41.7557 257.642 41.6844C253.519 41.0816 247.548 43.9569 245.296 47.4038C244.995 47.8622 244.76 48.3601 244.598 48.883C244.322 49.6462 244.283 50.474 244.486 51.2594C244.361 51.8344 244.237 52.4118 244.116 52.9915C244.118 52.9983 244.118 53.0054 244.116 53.0123C244.102 53.0588 244.092 53.1063 244.085 53.1543C244.071 53.2044 244.061 53.2553 244.053 53.3067C243.973 53.6531 243.896 54.0203 243.819 54.3771C243.819 54.4256 243.819 54.4672 243.799 54.5122C243.797 54.5365 243.797 54.5608 243.799 54.585C243.449 56.2028 242.905 58.742 242.458 60.7374C242.133 62.1819 241.861 63.3424 241.759 63.6473C241.494 64.4371 241.061 65.8055 239.528 65.7431C239.115 65.6979 238.708 65.6037 238.317 65.4625L238.177 65.4106C236.431 64.7177 235.384 63.0826 235.182 60.6542C234.923 57.7028 235.464 54.7929 236.054 51.9003C236.526 49.6035 237.032 47.3171 237.556 45.0273C237.598 44.8472 237.636 44.6809 237.681 44.4834C237.982 43.1809 238.288 41.8772 238.6 40.5724C239.037 38.5368 239.894 36.613 241.117 34.9223C242.817 32.6879 244.354 32.196 247.129 32.8819C248.128 33.1279 248.327 33.5955 248.104 34.614C247.981 35.1752 247.863 35.7329 247.754 36.2941C250.198 35.0262 252.873 34.0563 254.797 34.1048C256.217 34.1585 257.625 34.3913 258.987 34.7976C259.577 34.9874 260.069 35.3977 260.36 35.9414C260.65 36.4852 260.716 37.1198 260.544 37.711Z" fill="white"/>
<path d="M245.296 47.4039C245.017 48.688 244.741 49.9732 244.469 51.2595C244.266 50.4741 244.305 49.6464 244.581 48.8831C244.748 48.3593 244.989 47.8614 245.296 47.4039Z" fill="white"/>
<path d="M203.37 58.1878C199.023 60.7201 193.084 58.6277 191.639 53.9511C191.244 52.6763 191.234 51.3633 192.302 50.3171C194.905 47.7767 197.541 45.2675 200.21 42.7895C201.548 41.5562 203.004 40.4581 204.4 39.2803C205.036 38.7433 205.587 38.0955 205.301 37.2399C205.026 36.3451 204.645 35.4857 204.166 34.6798C203.873 34.1664 203.403 33.7747 202.843 33.5763C202.283 33.3779 201.669 33.3859 201.115 33.599C199.802 34.0493 198.398 34.5516 197.323 35.3969C194.593 37.5482 192.012 39.9003 189.39 42.1867C188.887 42.6267 188.451 43.1428 187.994 43.6243L187.732 43.4789C187.725 43.1882 187.742 42.8975 187.781 42.6093C188.87 37.4581 190.225 32.3692 192.32 27.4674C193.018 25.8115 193.831 24.1903 194.46 22.5101C194.69 21.8831 194.809 20.9928 194.519 20.4663C193.692 18.8831 191.3 17.5668 189.17 19.3231C188.09 20.1886 187.173 21.2386 186.464 22.4235C185.246 24.473 184.213 26.6258 183.378 28.8565C180.553 36.8241 178.511 44.9996 176.807 53.2305C176.795 53.2891 176.78 53.3469 176.761 53.4037C176.273 55.7906 175.679 59.9268 176.468 63.0757L176.569 63.4533C176.687 63.8741 176.849 64.2816 177.051 64.6693C178.046 66.4602 180.323 66.6334 181.758 65.0365C182.241 64.5195 182.632 63.9243 182.913 63.2767C183.507 61.8113 183.982 60.3044 184.509 58.8148C184.614 58.5307 184.747 58.2536 184.928 57.8171C185.277 58.2674 185.504 58.5688 185.752 58.8564C186.946 60.2178 188.067 61.6554 189.373 62.9095C190.561 64.093 191.985 65.0183 193.553 65.6267C195.121 66.235 196.8 66.5129 198.482 66.4429C200.773 66.384 202.899 65.7501 205.018 64.9949C204.198 62.7989 203.645 60.5137 203.37 58.1878Z" fill="white"/>
<path d="M156.685 38.6845C156.245 37.296 155.456 36.0416 154.391 35.0402C153.511 34.2338 152.462 33.6305 151.319 33.2735C148.725 32.4733 146.431 33.1245 145.013 33.6199C143.409 34.1743 141.891 34.9473 140.502 35.9167C140.209 36.1176 139.926 36.3324 139.64 36.5471C139.479 36.6788 139.315 36.8104 139.151 36.9351C139.142 36.9472 139.13 36.9568 139.116 36.9628L138.669 37.3404C138.379 37.5968 138.062 37.8185 137.667 38.1268C135.942 39.5125 134.273 40.8774 132.992 42.367C132.374 43.5683 131.834 44.8076 131.375 46.0771C130.542 48.4304 129.774 50.7988 129.071 53.1821C128.673 54.6406 128.282 56.1059 127.915 57.5782C126.868 61.8911 128.208 64.0354 132.503 65.2583C133.166 65.4364 133.844 65.5524 134.528 65.6047C135.668 65.7017 136.814 65.7017 137.953 65.6047C141.096 65.3518 143.816 63.8103 146.207 61.7941C150.271 58.3784 153.344 54.4189 155.201 49.815C156.105 47.7007 156.693 45.4671 156.947 43.1845C157.216 40.5691 156.877 39.2735 156.685 38.6845ZM148.009 44.1822C147.286 49.5274 144.842 54.0447 140.52 57.5643C139.405 58.4958 138.049 59.0962 136.606 59.2964C136.162 59.3588 135.907 59.3172 135.792 59.1405C135.677 58.9639 135.715 58.756 135.816 58.4061C137.014 54.3704 138.114 50.3069 139.51 46.3265C139.768 45.6173 140.09 44.9332 140.474 44.2827C141.071 43.2261 141.769 42.2042 142.37 41.1441C142.474 40.9895 142.597 40.8486 142.737 40.7249C143.76 39.658 144.94 38.9513 146.403 39.4536C147.782 39.9247 148.037 41.1857 148.148 42.4709C148.149 43.0442 148.102 43.6165 148.009 44.1822Z" fill="white"/>
<path d="M142.779 38.4003C142.202 39.9488 141.473 41.4557 140.806 42.9799C140.75 43.1046 140.694 43.2328 140.642 43.3575C139.283 46.5855 138.169 49.91 137.311 53.3032V53.3205C136.867 54.7581 136.476 56.2858 136.127 57.8239C135.638 59.9683 135.226 62.168 134.856 64.2742C134.696 65.168 134.549 66.0444 134.402 66.8966L132.562 75.4809C132.136 76.7072 131.728 77.9474 131.239 79.1529C130.959 79.7999 130.568 80.3941 130.083 80.9092C128.652 82.5097 126.372 82.3365 125.373 80.542C125.173 80.1566 125.014 79.7514 124.899 79.333L124.794 78.9554C124.005 75.803 124.598 71.6807 125.091 69.28C125.108 69.2231 125.122 69.1652 125.132 69.1068C126.334 63.3008 127.706 57.5329 129.399 51.8344C130.097 49.451 130.865 47.0838 131.703 44.7328C132.161 43.4671 132.701 42.2324 133.32 41.0365C133.781 40.1116 134.28 39.2074 134.79 38.3137C135.501 37.1256 136.417 36.0704 137.496 35.1959C137.94 34.7959 138.488 34.5263 139.078 34.4174C139.668 34.3085 140.277 34.3646 140.837 34.5793C141.697 34.9105 142.409 35.5359 142.845 36.3425C143.117 36.883 143.016 37.7733 142.779 38.4003Z" fill="white"/>
<path d="M177.68 60.6994C177.767 60.9835 177.844 61.271 177.931 61.5551C177.893 61.4304 177.861 61.3056 177.83 61.1775L177.568 60.2109C177.599 60.3807 177.634 60.5435 177.68 60.6994Z" fill="white"/>
<path d="M291.835 58.8355C289.433 51.1866 270.886 65.5491 266.727 60.2455C271.639 59.0561 276.167 56.6523 279.89 53.2582C283.216 50.2103 285.8 46.4515 287.446 42.2664C287.645 41.2029 288.085 38.0712 286.234 35.4211C284.248 32.577 280.487 31.6382 277.76 31.7352C266.766 32.1232 257.136 44.6878 258.229 56.4591C258.159 56.033 254.112 60.4602 254.039 60.4776C252.388 63.8863 257.202 63.1173 260.324 62.0884C265.778 70.1877 277.802 67.3886 285.533 64.0318C288.465 63.0341 292.917 63.1311 291.835 58.8355ZM265.687 54.5919C266.888 47.6878 270.498 38.6948 278.417 37.4581C282.488 36.6544 276.79 46.3957 273.494 49.9291C271.385 52.2016 268.599 53.6393 265.687 54.5919Z" fill="white"/>
<path d="M144.325 59.0192C143.857 59.4175 143.379 59.8159 142.908 60.2212C143.054 60.093 143.198 59.9614 143.341 59.8298C143.627 59.5665 143.938 59.3309 144.318 59.0088L144.325 59.0192Z" fill="white"/>
<path d="M150.945 50.5458C150.893 50.8922 150.847 51.2698 150.809 51.6335L150.498 51.9626C150.694 51.5061 150.844 51.0315 150.945 50.5458Z" fill="white"/>
<path d="M163.281 47.726V47.8403L163.228 48.0412C163.249 47.9338 163.267 47.8299 163.281 47.726Z" fill="white"/>
<path d="M164.939 54.2351C164.67 54.5815 164.45 54.8378 164.272 55.115C162.177 58.3609 159.828 61.3886 156.685 63.7408C153.965 65.7777 151.797 65.7812 149.325 63.7027C148.7 63.1761 148.166 62.5456 147.579 61.9706C147.363 61.7523 146.487 60.4186 146.088 60.0307L151.535 53.4972C151.741 53.9822 151.961 54.4672 152.213 54.9383C153.508 57.3944 154.828 57.5988 156.853 55.4856C158.4 53.8463 159.737 52.0229 160.833 50.0573L164.939 54.2351Z" fill="white"/>
<path d="M264.695 61.4962C264.283 61.6487 263.962 61.7526 263.648 61.8946C260.156 63.554 256.539 64.9015 252.618 65.2583C249.224 65.5667 247.381 64.4339 246.382 61.3785C246.131 60.6025 246.016 59.7884 245.831 58.9916C245.831 58.9397 245.81 58.8531 245.799 58.7387C245.743 58.1163 245.9 57.4932 246.246 56.9707C246.591 56.4481 247.104 56.0567 247.702 55.86L252.161 54.3704C252.321 54.3174 252.491 54.3044 252.658 54.3327C252.824 54.361 252.981 54.4296 253.114 54.5325C253.247 54.6354 253.352 54.7693 253.42 54.9223C253.489 55.0754 253.518 55.2428 253.505 55.4097C253.302 58.181 254.315 59.0401 257.161 58.3023C259.346 57.7188 261.45 56.8682 263.424 55.7699L264.695 61.4962Z" fill="white"/>
<path d="M133.32 58.8355C130.918 51.1866 112.371 65.5491 108.213 60.2455C113.124 59.0561 117.653 56.6523 121.376 53.2582C124.702 50.2103 127.286 46.4515 128.931 42.2664C129.13 41.2029 129.57 38.0712 127.72 35.4211C125.733 32.577 121.973 31.6382 119.246 31.7352C108.251 32.1232 98.6214 44.6878 99.7143 56.4591C99.6444 56.033 95.5978 60.4602 95.5244 60.4776C93.873 63.8863 98.6878 63.1173 101.809 62.0884C107.263 70.1877 119.288 67.3886 127.018 64.0318C129.951 63.0341 134.402 63.1311 133.32 58.8355ZM107.172 54.5919C108.373 47.6878 111.983 38.6948 119.902 37.4581C123.973 36.6544 118.275 46.3957 114.979 49.9291C112.87 52.2016 110.084 53.6393 107.172 54.5919Z" fill="white"/>
<path d="M106.18 61.4962C105.768 61.6487 105.447 61.7526 105.133 61.8946C101.642 63.554 98.0243 64.9015 94.1033 65.2583C90.7096 65.5667 88.8661 64.4339 87.8675 61.3785C87.6161 60.6025 87.5009 59.7884 87.3158 58.9916C87.3158 58.9397 87.2949 58.8531 87.2844 58.7387C87.228 58.1163 87.3853 57.4932 87.7307 56.9707C88.0761 56.4481 88.5894 56.0567 89.1873 55.86L93.6459 54.3704C93.8059 54.3174 93.9767 54.3044 94.1429 54.3327C94.3092 54.361 94.4658 54.4296 94.5989 54.5325C94.7319 54.6354 94.8373 54.7693 94.9056 54.9223C94.9738 55.0754 95.0029 55.2428 94.9902 55.4097C94.7877 58.181 95.8002 59.0401 98.6458 58.3023C100.831 57.7188 102.935 56.8682 104.91 55.7699L106.18 61.4962Z" fill="white"/>
<path d="M179.593 61.4857C179.199 61.6763 178.895 61.8045 178.605 61.9742C175.267 63.9453 171.821 65.6047 168.005 66.2802C164.705 66.8691 162.834 65.8645 161.699 62.816C161.64 62.6532 161.587 62.4904 161.538 62.3275C161.343 61.704 161.189 61.0597 161.032 60.4292L160.934 60.0828C160.152 56.4211 160.32 53.4142 160.777 50.1059C160.777 50.0401 160.809 49.9743 160.826 49.905C161.937 45.502 163.026 41.0956 164.126 36.6891C164.615 34.718 165.222 34.0356 167.118 33.7376C168.132 33.5801 169.164 33.5731 170.18 33.7169C171.926 33.9732 172.582 34.9743 172.24 36.6822C171.605 39.8173 170.906 42.9454 170.246 46.0771C169.548 49.4373 168.403 52.7387 168.34 56.1959C168.291 59.0296 169.328 59.8264 172.069 58.8495C174.186 58.0746 176.198 57.04 178.057 55.7698L179.593 61.4857Z" fill="white"/>
<path d="M174.869 24.5471C175.218 22.8358 174.541 21.8347 172.809 21.5818C171.793 21.4347 170.761 21.4417 169.747 21.6026C167.851 21.9005 167.244 22.583 166.755 24.5541L166.095 27.2076C166.02 27.5106 166.011 27.8259 166.067 28.1328C166.124 28.4396 166.246 28.731 166.424 28.9879C166.603 29.2448 166.834 29.4613 167.103 29.6231C167.372 29.785 167.672 29.8886 167.984 29.927C169.266 30.0802 170.557 30.1578 171.849 30.1591C172.363 30.168 172.864 30.0004 173.267 29.6847C173.67 29.369 173.951 28.9247 174.063 28.427C174.349 27.1245 174.621 25.8358 174.869 24.5471Z" fill="white"/>
</g>
<defs>
<filter id="filter0_d_2865_7415" x="83.2732" y="13.2362" width="212.728" height="74.7705" filterUnits="userSpaceOnUse" color-interpolation-filters="sRGB">
<feFlood flood-opacity="0" result="BackgroundImageFix"/>
<feColorMatrix in="SourceAlpha" type="matrix" values="0 0 0 0 0 0 0 0 0 0 0 0 0 0 0 0 0 0 127 0" result="hardAlpha"/>
<feOffset dy="2"/>
<feGaussianBlur stdDeviation="2"/>
<feComposite in2="hardAlpha" operator="out"/>
<feColorMatrix type="matrix" values="0 0 0 0 0 0 0 0 0 0 0 0 0 0 0 0 0 0 0.33 0"/>
<feBlend mode="normal" in2="BackgroundImageFix" result="effect1_dropShadow_2865_7415"/>
<feBlend mode="normal" in="SourceGraphic" in2="effect1_dropShadow_2865_7415" result="shape"/>
</filter>
</defs>
</svg>
