<svg width="88" height="88" viewBox="0 0 88 88" fill="none" xmlns="http://www.w3.org/2000/svg">
<path d="M44 82.9999C65.5391 82.9999 83 65.5391 83 44C83 22.4609 65.5391 5 44 5C22.4609 5 5.00002 22.4609 5.00002 44C5.00002 65.5391 22.4609 82.9999 44 82.9999Z" fill="#FFA58D"/>
<path d="M44 23.6532C40.037 23.6532 36.2363 25.2275 33.434 28.0298C30.6317 30.832 29.0574 34.6327 29.0574 38.5957C29.0574 50.8529 44 64.3431 44 64.3431C44 64.3431 58.9389 50.8677 58.9389 38.5957C58.9389 34.6334 57.3651 30.8332 54.5636 28.0311C51.7621 25.2289 47.9624 23.6542 44 23.6532V23.6532ZM44 46.5109C42.4874 46.5109 41.0088 46.0624 39.7512 45.222C38.4935 44.3817 37.5133 43.1873 36.9344 41.7898C36.3556 40.3924 36.2041 38.8547 36.4992 37.3712C36.7943 35.8877 37.5227 34.525 38.5923 33.4554C39.6618 32.3859 41.0245 31.6575 42.508 31.3624C43.9915 31.0673 45.5292 31.2188 46.9267 31.7976C48.3241 32.3764 49.5185 33.3567 50.3588 34.6143C51.1992 35.872 51.6477 37.3506 51.6477 38.8632C51.6477 40.8915 50.842 42.8367 49.4078 44.2709C47.9735 45.7051 46.0283 46.5109 44 46.5109Z" fill="white"/>
<g filter="url(#filter0_d_2906_1800)">
<path d="M44 11.6857C50.3911 11.6857 56.6388 13.5809 61.9528 17.1317C67.2669 20.6824 71.4087 25.7292 73.8545 31.6338C76.3003 37.5385 76.9402 44.0358 75.6933 50.3042C74.4465 56.5725 71.3688 62.3304 66.8496 66.8496C62.3304 71.3689 56.5725 74.4465 50.3042 75.6934C44.0358 76.9402 37.5385 76.3003 31.6338 73.8545C25.7292 71.4087 20.6824 67.2669 17.1317 61.9529C13.5809 56.6388 11.6857 50.3911 11.6857 44C11.6956 35.4327 15.1032 27.2192 21.1612 21.1612C27.2192 15.1032 35.4327 11.6955 44 11.6857ZM44 5C36.2865 5 28.7463 7.28735 22.3328 11.5727C15.9192 15.8581 10.9205 21.949 7.96872 29.0753C5.0169 36.2016 4.24457 44.0432 5.74939 51.6085C7.25421 59.1738 10.9686 66.1229 16.4228 71.5771C21.8771 77.0314 28.8262 80.7458 36.3915 82.2506C43.9567 83.7554 51.7983 82.9831 58.9246 80.0313C66.0509 77.0795 72.1419 72.0807 76.4273 65.6672C80.7127 59.2537 83 51.7134 83 44C83 33.6565 78.891 23.7367 71.5771 16.4228C64.2632 9.10891 54.3434 5 44 5Z" fill="white"/>
</g>
<defs>
<filter id="filter0_d_2906_1800" x="0" y="0" width="88" height="88" filterUnits="userSpaceOnUse" color-interpolation-filters="sRGB">
<feFlood flood-opacity="0" result="BackgroundImageFix"/>
<feColorMatrix in="SourceAlpha" type="matrix" values="0 0 0 0 0 0 0 0 0 0 0 0 0 0 0 0 0 0 127 0" result="hardAlpha"/>
<feOffset/>
<feGaussianBlur stdDeviation="2.5"/>
<feComposite in2="hardAlpha" operator="out"/>
<feColorMatrix type="matrix" values="0 0 0 0 0 0 0 0 0 0 0 0 0 0 0 0 0 0 0.33 0"/>
<feBlend mode="normal" in2="BackgroundImageFix" result="effect1_dropShadow_2906_1800"/>
<feBlend mode="normal" in="SourceGraphic" in2="effect1_dropShadow_2906_1800" result="shape"/>
</filter>
</defs>
</svg>
