<svg width="37" height="33" viewBox="0 0 37 33" fill="none" xmlns="http://www.w3.org/2000/svg">
<path d="M27.8016 10.2992C27.8016 7.83226 26.8217 5.46635 25.0773 3.72195C23.3329 1.97755 20.967 0.997559 18.5 0.997559C16.033 0.997559 13.6671 1.97755 11.9227 3.72195C10.1783 5.46635 9.19835 7.83226 9.19835 10.2992C9.19835 21.1511 4.54753 24.2517 4.54753 24.2517H32.4525C32.4525 24.2517 27.8016 21.1511 27.8016 10.2992Z" stroke="#0F172A" stroke-opacity="0.66" stroke-width="1.69121" stroke-linecap="round" stroke-linejoin="round"/>
<path d="M21.182 30.4528C20.9094 30.9226 20.5182 31.3126 20.0475 31.5837C19.5768 31.8548 19.0432 31.9975 18.5 31.9975C17.9568 31.9975 17.4232 31.8548 16.9525 31.5837C16.4818 31.3126 16.0906 30.9226 15.818 30.4528" stroke="#0F172A" stroke-opacity="0.66" stroke-width="1.69121" stroke-linecap="round" stroke-linejoin="round"/>
</svg>
