<svg width="37" height="33" viewBox="0 0 37 33" fill="none" xmlns="http://www.w3.org/2000/svg">
<g clip-path="url(#clip0_2906_1779)">
<g clip-path="url(#clip1_2906_1779)">
<path d="M18.5004 33L2.92897 17.256C2.00038 16.3174 1.26378 15.203 0.761225 13.9766C0.258672 12.7502 4.15116e-08 11.4358 0 10.1083C-4.15114e-08 8.78086 0.258672 7.46646 0.761225 6.24006C1.26378 5.01366 2.00038 3.89931 2.92897 2.96067C3.85757 2.02202 4.95998 1.27745 6.17325 0.769463C7.38652 0.261471 8.68696 -4.19607e-08 10.0002 0C11.3134 4.19607e-08 12.6138 0.261471 13.827 0.769463C15.0403 1.27745 16.1427 2.02202 17.0713 2.96067L18.5004 4.40518L19.9294 2.96067C21.807 1.06758 24.3507 0.00442103 27.0026 0.00442103C29.6546 0.00442103 32.1983 1.06758 34.0759 2.96067C35.9484 4.85786 37 7.42835 37 10.1083C37 12.7883 35.9484 15.3588 34.0759 17.256L18.5004 33ZM10.0002 1.66602C8.34838 1.6672 6.73391 2.16323 5.36085 3.09142C3.98779 4.01961 2.91775 5.3383 2.28579 6.88095C1.65382 8.42361 1.48828 10.121 1.81021 11.7587C2.13214 13.3963 2.92707 14.9008 4.09449 16.0821L18.5086 30.6522L32.9227 16.0821C33.7209 15.303 34.3577 14.3709 34.7958 13.3404C35.2338 12.3098 35.4644 11.2014 35.4741 10.0798C35.4838 8.95819 35.2724 7.84586 34.8523 6.80773C34.4321 5.76959 33.8116 4.82648 33.027 4.03335C32.2423 3.24023 31.3093 2.61301 30.2823 2.18831C29.2553 1.76361 28.1549 1.5499 27.0453 1.55971C25.9357 1.56952 24.8391 1.80268 23.8196 2.24548C22.8001 2.68828 21.8781 3.33187 21.1073 4.13875L18.5127 6.75722L15.9223 4.13875C15.1432 3.34921 14.2166 2.72404 13.1964 2.29955C12.1762 1.87505 11.0828 1.65971 9.97958 1.66602H10.0002Z" fill="#0F172A" fill-opacity="0.66"/>
</g>
</g>
<defs>
<clipPath id="clip0_2906_1779">
<rect width="37" height="33" fill="white"/>
</clipPath>
<clipPath id="clip1_2906_1779">
<rect width="37" height="33" fill="white"/>
</clipPath>
</defs>
</svg>
