<svg width="38" height="33" viewBox="0 0 38 33" 
fill="none"
xmlns="http://www.w3.org/2000/svg">
<g clip-path="url(#clip0_2906_1769)">
<path d="M18.4916 2.73615C21.5522 2.73615 23.7824 4.0727 25.293 6.82848C25.445 7.10466 25.6722 7.33583 25.9503 7.49724C26.2284 7.65865 26.5468 7.7442 26.8716 7.74474C27.0028 7.74461 27.1337 7.73075 27.2618 7.70341C28.1678 7.49794 29.0945 7.38937 30.0253 7.37963C32.9606 7.37963 34.643 8.66793 35.1728 11.3169C35.2767 11.9543 35.2465 12.6053 35.0842 13.2314C34.9219 13.8574 34.6306 14.4457 34.2278 14.9615C33.2792 16.1878 31.7829 16.9353 29.9036 17.1179C29.4612 17.1615 29.0515 17.362 28.7544 17.6804C28.4573 17.9988 28.294 18.4123 28.2963 18.8402V21.3858H8.75853V18.823C8.76085 18.395 8.59755 17.9816 8.30042 17.6632C8.0033 17.3448 7.59365 17.1443 7.15127 17.1006C4.87819 16.8733 3.39263 16.0328 2.47624 14.4516C2.14061 13.8916 1.92775 13.2714 1.85079 12.6292C1.77383 11.9869 1.83441 11.3364 2.02878 10.7175C2.31457 9.69486 2.94461 8.7922 3.82032 8.15082C4.69604 7.50944 5.768 7.16557 6.86847 7.17295C7.76295 7.18708 8.64772 7.35384 9.48162 7.66552C9.67975 7.73645 9.8895 7.77264 10.1009 7.77233C10.4213 7.77228 10.7358 7.68945 11.0116 7.53252C11.2874 7.37558 11.5144 7.15026 11.6688 6.88012C13.2725 4.083 15.5026 2.72236 18.4701 2.72236L18.4916 2.73615ZM18.4701 1C14.6113 1 11.8979 2.89805 10.0902 6.04997C9.06176 5.66772 7.97083 5.46476 6.86847 5.45059C5.67436 5.45927 4.50318 5.76704 3.47021 6.3436C2.43725 6.92017 1.57811 7.74562 0.977376 8.73876C0.376645 9.7319 0.0550333 10.8585 0.0441835 12.0076C0.0333336 13.1567 0.333622 14.2887 0.915501 15.2921C2.2185 17.5381 4.33408 18.5508 6.9687 18.8126V23.0875H30.0969V18.823C35.5344 18.2856 37.5426 14.0004 36.9412 10.9828C36.2467 7.49673 33.8233 5.64692 30.036 5.64692C28.9741 5.65728 27.9165 5.77975 26.8823 6.01208C25.0925 2.79816 22.3362 1.00345 18.4916 1.00345L18.4701 1Z" fill="#0F172A" fill-opacity="0.66"/>
<path d="M28.3108 27.1592C28.3108 28.1926 28.3323 29.1709 28.2643 30.1354C28.2262 30.182 28.177 30.2191 28.121 30.2436C28.065 30.2682 28.0036 30.2795 27.9421 30.2767C24.5952 30.2767 21.4988 30.2767 18.5133 30.2767C15.3632 30.2767 12.2919 30.2767 9.38521 30.2767C8.85542 30.2767 8.84111 30.008 8.83753 29.8943C8.78741 29.009 8.79099 28.1065 8.80531 27.1592H28.3108ZM30.0792 25.4368H7.02981C7.02981 27.0179 6.96537 28.5061 7.0477 29.9839C7.11571 31.1792 8.0679 31.9921 9.37806 31.999C12.4231 31.999 15.4682 31.999 18.5133 31.999C21.661 31.999 24.8064 31.999 27.9493 31.999C28.4638 32.0143 28.9655 31.8428 29.3548 31.5187C29.744 31.1945 29.9924 30.7413 30.0506 30.2491C30.1615 28.6749 30.0792 27.0869 30.0792 25.4265V25.4368Z" fill="#0F172A" fill-opacity="0.66"/>
</g>
<defs>
<clipPath id="clip0_2906_1769">
<rect width="37" height="33" fill="white" transform="translate(0.0438995)"/>
</clipPath>
</defs>
</svg>
