<svg width="37" height="33" viewBox="0 0 37 33" fill="none" xmlns="http://www.w3.org/2000/svg">
<path d="M14.2411 3.53778C14.7635 3.83418 15.234 4.21054 15.635 4.65266C16.0905 5.14368 16.4569 5.70754 16.7184 6.31975C16.1406 5.96668 15.6238 5.52581 15.1872 5.01368C14.7941 4.56536 14.4715 4.06192 14.2303 3.52006L14.2411 3.53778ZM12.0636 1C12.0059 1.75036 11.8217 3.83155 13.8042 6.15341C15.1331 7.67536 16.7256 8.6062 18.4734 8.6062C18.5997 8.6062 18.7225 8.6062 18.8345 8.6062C18.9004 7.67497 18.7696 6.74041 18.4502 5.86099C18.1309 4.98157 17.6298 4.17624 16.9784 3.4953C15.8228 2.17864 13.8006 1.11328 12.0528 1.01771L12.0636 1Z" fill="#0F172A" fill-opacity="0.66"/>
<path d="M23.8756 10.4007C23.9767 10.4007 24.0742 10.4007 24.1717 10.4007C26.0819 10.5458 27.5083 11.1581 28.5339 12.2766L28.5953 12.3367C29.9964 13.7242 30.7403 15.7452 30.7403 18.1803C30.7209 19.9505 30.4012 21.7052 29.7942 23.3726C29.6858 23.6841 29.5342 24.0522 29.3644 24.4344L29.3392 24.4911C28.0644 27.6588 25.6775 30.9894 23.8719 31.085H23.7672C23.6461 31.082 23.5254 31.0702 23.4061 31.0496C22.8987 30.9509 22.4035 30.799 21.9292 30.5966C21.5681 30.4621 21.2069 30.3276 20.8061 30.2001H20.7844C19.9772 29.9555 19.1377 29.828 18.2928 29.8214H18.2675C17.4237 29.8276 16.5854 29.9552 15.7794 30.2001H15.7578C15.3497 30.3276 14.985 30.4621 14.6347 30.5966C14.1544 30.8006 13.6532 30.9536 13.1397 31.0532C13.0203 31.0725 12.8996 31.0832 12.7786 31.085H12.6631C10.8756 30.9894 8.49222 27.6588 7.2175 24.4911C7.20691 24.4732 7.19843 24.4542 7.19222 24.4344C7.01889 24.0486 6.87083 23.6805 6.7625 23.3726C6.15606 21.7026 5.83636 19.9457 5.81639 18.1732C5.81639 15.7381 6.53861 13.7171 7.96139 12.3297L8.01917 12.2695C9.04833 11.151 10.4747 10.5387 12.385 10.3936C12.4789 10.3936 12.58 10.3936 12.6811 10.3936C13.8583 10.3936 15.2089 10.882 16.2922 11.2749C16.8095 11.4765 17.3389 11.6467 17.8775 11.7846C18.0099 11.8158 18.1457 11.8312 18.2819 11.8306C18.4181 11.831 18.5539 11.8156 18.6864 11.7846C19.2238 11.6466 19.752 11.4765 20.2681 11.2749C21.3514 10.882 22.7056 10.3936 23.8792 10.3936L23.8756 10.4007ZM23.8792 8.6239C21.7125 8.6239 19.4339 9.79896 18.2747 10.0609C17.1156 9.79896 14.8478 8.6239 12.6703 8.6239C12.5222 8.6239 12.3778 8.6239 12.2333 8.6239C9.87167 8.80441 8.01194 9.61846 6.66861 11.0802C5.07972 12.6517 4 15.009 4 18.1591C4.0184 20.1279 4.37109 22.0801 5.04361 23.9354C5.16639 24.2893 5.32889 24.6787 5.52389 25.1246C6.65416 27.9243 9.39861 32.6636 12.5547 32.8334H12.7389H12.8219C13.0253 32.8291 13.2281 32.8102 13.4286 32.7768C14.4542 32.6211 15.2992 32.1751 16.2922 31.8672C17.5839 31.4609 18.9728 31.4609 20.2644 31.8672C21.2575 32.1751 22.1025 32.6211 23.1281 32.7768C23.3286 32.8104 23.5313 32.8293 23.7347 32.8334H23.8178H23.9983C27.1581 32.6636 29.9025 27.9243 31.0292 25.1246C31.2278 24.6787 31.3903 24.2752 31.5131 23.9354C32.1838 22.0796 32.5365 20.1278 32.5567 18.1591C32.5567 14.9984 31.4733 12.6411 29.8881 11.0802C28.5447 9.61846 26.6814 8.80441 24.3233 8.6239C24.1789 8.6239 24.0308 8.6239 23.8864 8.6239H23.8792Z" fill="#0F172A" fill-opacity="0.66"/>
</svg>
